<svg xmlns="http://www.w3.org/2000/svg" viewBox="0 0 512 512" role="img" aria-label="cptr logo">
  <path d="M 416 203 L 416 96 L 96 96 L 96 416 L 416 416 L 416 309" fill="none" stroke="#0F172A" stroke-width="20" stroke-linejoin="miter"/>
  <path d="M 257.2 277.7 Q 254.2 279.4 250.7 280.3 Q 247.2 281.2 243.2 281.2 Q 232.6 281.2 226.6 274.8 Q 220.6 268.4 220.6 257.1 Q 220.6 245.7 226.6 239.3 Q 232.7 232.9 243.3 232.9 Q 247.0 232.9 250.4 233.7 Q 253.8 234.6 257.2 236.4 L 257.2 247.4 Q 254.6 245.1 251.5 243.9 Q 248.3 242.7 245.0 242.7 Q 239.1 242.7 235.9 246.4 Q 232.8 250.2 232.8 257.1 Q 232.8 264.0 235.9 267.7 Q 239.1 271.3 245.0 271.3 Q 248.5 271.3 251.5 270.2 Q 254.5 269.0 257.2 266.6 Z M 282.4 273.5 L 282.4 297.5 L 270.4 297.5 L 270.4 234.1 L 282.4 234.1 L 282.4 241.0 Q 284.3 237.0 287.4 235.0 Q 290.5 233.0 294.6 233.0 Q 302.5 233.0 306.8 239.3 Q 311.2 245.6 311.2 257.1 Q 311.2 268.7 306.8 275.0 Q 302.3 281.2 294.2 281.2 Q 290.5 281.2 287.6 279.3 Q 284.6 277.4 282.4 273.5 Z M 299.1 257.0 Q 299.1 250.3 296.9 246.6 Q 294.7 242.8 290.8 242.8 Q 286.9 242.8 284.7 246.6 Q 282.4 250.3 282.4 257.0 Q 282.4 263.6 284.7 267.4 Q 286.9 271.2 290.8 271.2 Q 294.7 271.2 296.9 267.4 Q 299.1 263.6 299.1 257.0 Z M 343.2 221.0 L 343.2 234.1 L 358.9 234.1 L 358.9 243.3 L 343.2 243.3 L 343.2 265.0 Q 343.2 268.1 344.7 269.4 Q 346.2 270.8 349.6 270.8 L 358.9 270.8 L 358.9 280.0 L 348.8 280.0 Q 338.4 280.0 334.8 276.7 Q 331.1 273.4 331.1 264.5 L 331.1 243.3 L 319.4 243.3 L 319.4 234.1 L 331.1 234.1 L 331.1 221.0 Z M 412.6 246.7 Q 410.7 244.9 408.0 244.0 Q 405.4 243.1 402.2 243.1 Q 398.4 243.1 395.6 244.5 Q 392.7 245.8 391.1 248.3 Q 390.2 249.9 389.8 252.1 Q 389.4 254.3 389.4 258.8 L 389.4 280.0 L 377.4 280.0 L 377.4 234.1 L 389.4 234.1 L 389.4 241.2 Q 391.1 237.3 394.8 235.1 Q 398.4 233.0 403.3 233.0 Q 405.8 233.0 408.1 233.5 Q 410.5 234.1 412.6 235.3 Z" fill="#0F172A"/>
</svg>
